<svg xmlns="http://www.w3.org/2000/svg" xmlns:xlink="http://www.w3.org/1999/xlink" viewBox="0 0 327.47 82.2"><defs><style>.cls-1-taghive{fill:url(#linear-gradient);}.cls-2-taghive{fill:#f7c22b;}</style><linearGradient id="linear-gradient" x1="69.01" y1="25.44" x2="36.01" y2="82.61" gradientUnits="userSpaceOnUse"><stop offset="0" stop-color="#777b90"></stop><stop offset="0.27" stop-color="#afd580"></stop><stop offset="0.31" stop-color="#bdda7e"></stop><stop offset="0.44" stop-color="#e1e678"></stop><stop offset="0.51" stop-color="#eeeb76"></stop><stop offset="0.58" stop-color="#ecdc6c"></stop><stop offset="0.71" stop-color="#e6b453"></stop><stop offset="0.79" stop-color="#e29741"></stop><stop offset="0.87" stop-color="#dc823e"></stop><stop offset="1" stop-color="#d4653b"></stop></linearGradient></defs><g id="Layer_2" data-name="Layer 2"><g id="Layer_1-2" data-name="Layer 1"><polygon points="111.46 26.49 91.92 26.49 91.92 31.38 98.5 31.38 98.5 55.75 104.74 55.75 104.74 31.38 111.46 31.38 111.46 26.49"></polygon><path d="M143.91,50.33l2,5.42h6.65l-11-29.26H134L122.74,55.75h6.56l2.15-5.42Zm-6.2-18L142.37,46H133Z"></path><path d="M192.22,47.34a23.58,23.58,0,0,0,1.09-7H179.12v4.29h6.8l-.16,1.07a6.94,6.94,0,0,1-1.81,4,7.6,7.6,0,0,1-5.55,2.06,8.21,8.21,0,0,1-6.24-2.5,11.3,11.3,0,0,1-3.06-8,12.36,12.36,0,0,1,.82-4.48c1.55-4,4.32-6,8.24-6a7.72,7.72,0,0,1,5.06,1.76,9.19,9.19,0,0,1,2.15,2.79l5.89-2.45a14.33,14.33,0,0,0-3.91-4.71,14.51,14.51,0,0,0-8.8-2.64c-5.2,0-9.29,1.66-12.16,5a16,16,0,0,0-3.84,10.81,15.84,15.84,0,0,0,3.28,10c2.89,3.69,7,5.48,12.42,5.48a15.53,15.53,0,0,0,8.61-2.36A13.55,13.55,0,0,0,192.22,47.34Z"></path><polygon points="234.22 55.75 234.22 26.49 227.99 26.49 227.99 38.51 214.45 38.51 214.45 26.49 208.23 26.49 208.23 55.75 214.45 55.75 214.45 42.8 227.99 42.8 227.99 55.75 234.22 55.75"></polygon><rect x="251.02" y="26.49" width="6.24" height="29.26"></rect><polygon points="293.2 26.49 285.01 47.01 276.86 26.49 270.1 26.49 282.41 55.75 287.46 55.75 299.93 26.49 293.2 26.49"></polygon><polygon points="327.47 31.38 327.47 26.49 311.62 26.49 311.62 55.75 327.47 55.75 327.47 50.87 317.85 50.87 317.85 43.44 326.95 43.44 326.95 38.56 317.85 38.56 317.85 31.38 327.47 31.38"></polygon><path class="cls-1-taghive" d="M54,30V45.64a5.94,5.94,0,0,1-2.69,4.65L36.69,58.72V82.2A47.88,47.88,0,0,1,53.34,63.33l8.61-5A9.48,9.48,0,0,0,66.21,51V23Z"></path><path class="cls-2-taghive" d="M29.52,58.72,14.93,50.29a5.91,5.91,0,0,1-2.69-4.65V27.75a5.93,5.93,0,0,1,2.69-4.65l15.5-8.94a5.89,5.89,0,0,1,5.36,0L51.28,23.1l.14.1,12-6.82A6.55,6.55,0,0,0,62,15.21L37.37,1a9.41,9.41,0,0,0-8.52,0L4.26,15.21A9.42,9.42,0,0,0,0,22.59V51a9.45,9.45,0,0,0,4.26,7.38l8.6,5A47.84,47.84,0,0,1,29.52,82.2Z"></path></g></g></svg>